# xmcd
#
# Track frame offsets:
#	150
#	6908
#	14652
#	18859
#	28813
#	35713
#	43226
#	52605
#
# Disc length: 840 seconds
#
# Revision: 0
# Processed by: cddbd v1.5.2PL0 Copyright (c) Steve Scherf et al.
# Submitted via: dBpowerAMP V4.0
#
DISCID=5e034608
DTITLE=Drowned UFO - Mr Gickity
DYEAR=2010
DGENRE=Electronic
TTITLE0=Mr Gickity Is Coming
TTITLE1=Bathyscaphe
TTITLE2=Adventures In Pak Choi
TTITLE3=Fiscal Stimulus
TTITLE4=Mice On Mars
TTITLE5=Mr Gickity Dancing
TTITLE6=How Could You Forget Presley, Elvis?
TTITLE7=Dread
EXTD=
EXTT0=
EXTT1=
EXTT2=
EXTT3=
EXTT4=
EXTT5=
EXTT6=
EXTT7=
PLAYORDER=
